<svg xmlns="http://www.w3.org/2000/svg" xmlns:xlink="http://www.w3.org/1999/xlink" width="600" zoomAndPan="magnify" viewBox="0 0 450 449.999984" height="600" preserveAspectRatio="xMidYMid meet" version="1.0"><defs><clipPath id="e620ebde8b"><path d="M 28.6875 28.6875 L 411.1875 28.6875 L 411.1875 411.1875 L 28.6875 411.1875 Z M 28.6875 28.6875 " clip-rule="nonzero"/></clipPath><clipPath id="c4e2420006"><path d="M 0.6875 0.6875 L 383.1875 0.6875 L 383.1875 383.1875 L 0.6875 383.1875 Z M 0.6875 0.6875 " clip-rule="nonzero"/></clipPath><clipPath id="27e868e530"><rect x="0" width="384" y="0" height="384"/></clipPath></defs><rect x="-45" width="540" fill="#ffffff" y="-44.999998" height="539.99998" fill-opacity="1"/><rect x="-45" width="540" fill="#ffffff" y="-44.999998" height="539.99998" fill-opacity="1"/><g clip-path="url(#e620ebde8b)"><path fill="#ffffff" d="M 28.6875 28.6875 L 411.1875 28.6875 L 411.1875 411.1875 L 28.6875 411.1875 Z M 28.6875 28.6875 " fill-opacity="1" fill-rule="nonzero"/></g><g transform="matrix(1, 0, 0, 1, 28, 28)"><g clip-path="url(#27e868e530)"><g clip-path="url(#c4e2420006)"><path fill="#ffffff" d="M 0.6875 0.6875 L 383.1875 0.6875 L 383.1875 383.1875 L 0.6875 383.1875 Z M 0.6875 0.6875 " fill-opacity="1" fill-rule="nonzero"/></g><path stroke-linecap="butt" transform="matrix(9.329268, 0, 0, 9.329268, 0.687506, 0.687498)" fill-opacity="1" fill="#ffffff" fill-rule="nonzero" stroke-linejoin="miter" d="M 2.000173 2.500113 L 9.000153 2.500113 M 10.000031 2.500113 L 12.000204 2.500113 M 13.999959 2.500113 L 17.999888 2.500113 M 19.000184 2.500113 L 21.999817 2.500113 M 23.000113 2.500113 L 24.999868 2.500113 M 26.000164 2.500113 L 27.000042 2.500113 M 28.999797 2.500113 L 30.999971 2.500113 M 31.999848 2.500113 L 38.999828 2.500113 M 2.000173 3.49999 L 3.000051 3.49999 M 7.999857 3.49999 L 9.000153 3.49999 M 10.000031 3.49999 L 12.000204 3.49999 M 17.999888 3.49999 L 19.000184 3.49999 M 21.999817 3.49999 L 23.000113 3.49999 M 23.999991 3.49999 L 27.000042 3.49999 M 28.999797 3.49999 L 30.999971 3.49999 M 31.999848 3.49999 L 33.000144 3.49999 M 37.999951 3.49999 L 38.999828 3.49999 M 2.000173 4.499868 L 3.000051 4.499868 M 3.999928 4.499868 L 6.999979 4.499868 M 7.999857 4.499868 L 9.000153 4.499868 M 10.000031 4.499868 L 10.999908 4.499868 M 13.000082 4.499868 L 13.999959 4.499868 M 17.000011 4.499868 L 20.000062 4.499868 M 21.999817 4.499868 L 23.000113 4.499868 M 27.000042 4.499868 L 30.000093 4.499868 M 31.999848 4.499868 L 33.000144 4.499868 M 34.000022 4.499868 L 37.000073 4.499868 M 37.999951 4.499868 L 38.999828 4.499868 M 2.000173 5.500164 L 3.000051 5.500164 M 3.999928 5.500164 L 6.999979 5.500164 M 7.999857 5.500164 L 9.000153 5.500164 M 13.999959 5.500164 L 16.000133 5.500164 M 17.000011 5.500164 L 17.999888 5.500164 M 19.000184 5.500164 L 23.000113 5.500164 M 26.000164 5.500164 L 27.999919 5.500164 M 30.000093 5.500164 L 30.999971 5.500164 M 31.999848 5.500164 L 33.000144 5.500164 M 34.000022 5.500164 L 37.000073 5.500164 M 37.999951 5.500164 L 38.999828 5.500164 M 2.000173 6.500041 L 3.000051 6.500041 M 3.999928 6.500041 L 6.999979 6.500041 M 7.999857 6.500041 L 9.000153 6.500041 M 10.000031 6.500041 L 12.000204 6.500041 M 16.000133 6.500041 L 17.000011 6.500041 M 19.000184 6.500041 L 20.000062 6.500041 M 21.999817 6.500041 L 23.000113 6.500041 M 23.999991 6.500041 L 24.999868 6.500041 M 26.000164 6.500041 L 27.000042 6.500041 M 27.999919 6.500041 L 28.999797 6.500041 M 30.000093 6.500041 L 30.999971 6.500041 M 31.999848 6.500041 L 33.000144 6.500041 M 34.000022 6.500041 L 37.000073 6.500041 M 37.999951 6.500041 L 38.999828 6.500041 M 2.000173 7.499919 L 3.000051 7.499919 M 7.999857 7.499919 L 9.000153 7.499919 M 10.999908 7.499919 L 12.000204 7.499919 M 13.999959 7.499919 L 14.999837 7.499919 M 17.000011 7.499919 L 23.000113 7.499919 M 24.999868 7.499919 L 26.000164 7.499919 M 31.999848 7.499919 L 33.000144 7.499919 M 37.999951 7.499919 L 38.999828 7.499919 M 2.000173 8.499796 L 9.000153 8.499796 M 10.000031 8.499796 L 10.999908 8.499796 M 12.000204 8.499796 L 13.000082 8.499796 M 13.999959 8.499796 L 14.999837 8.499796 M 16.000133 8.499796 L 17.000011 8.499796 M 17.999888 8.499796 L 19.000184 8.499796 M 20.000062 8.499796 L 20.999939 8.499796 M 21.999817 8.499796 L 23.000113 8.499796 M 23.999991 8.499796 L 24.999868 8.499796 M 26.000164 8.499796 L 27.000042 8.499796 M 27.999919 8.499796 L 28.999797 8.499796 M 30.000093 8.499796 L 30.999971 8.499796 M 31.999848 8.499796 L 38.999828 8.499796 M 10.999908 9.500093 L 12.000204 9.500093 M 13.000082 9.500093 L 14.999837 9.500093 M 16.000133 9.500093 L 17.000011 9.500093 M 17.999888 9.500093 L 19.000184 9.500093 M 20.999939 9.500093 L 21.999817 9.500093 M 23.999991 9.500093 L 26.000164 9.500093 M 28.999797 9.500093 L 30.000093 9.500093 M 2.000173 10.49997 L 3.000051 10.49997 M 4.999806 10.49997 L 13.999959 10.49997 M 14.999837 10.49997 L 16.000133 10.49997 M 17.999888 10.49997 L 19.000184 10.49997 M 20.000062 10.49997 L 20.999939 10.49997 M 21.999817 10.49997 L 23.000113 10.49997 M 23.999991 10.49997 L 26.000164 10.49997 M 28.999797 10.49997 L 30.000093 10.49997 M 30.999971 10.49997 L 31.999848 10.49997 M 34.000022 10.49997 L 34.999899 10.49997 M 36.000195 10.49997 L 38.999828 10.49997 M 2.000173 11.499848 L 3.999928 11.499848 M 6.000102 11.499848 L 7.999857 11.499848 M 9.000153 11.499848 L 10.999908 11.499848 M 13.999959 11.499848 L 16.000133 11.499848 M 21.999817 11.499848 L 23.000113 11.499848 M 23.999991 11.499848 L 24.999868 11.499848 M 26.000164 11.499848 L 28.999797 11.499848 M 30.000093 11.499848 L 33.000144 11.499848 M 34.999899 11.499848 L 37.999951 11.499848 M 2.000173 12.500144 L 3.999928 12.500144 M 6.999979 12.500144 L 9.000153 12.500144 M 10.000031 12.500144 L 10.999908 12.500144 M 12.000204 12.500144 L 17.000011 12.500144 M 19.000184 12.500144 L 20.000062 12.500144 M 23.000113 12.500144 L 23.999991 12.500144 M 30.000093 12.500144 L 33.000144 12.500144 M 34.000022 12.500144 L 34.999899 12.500144 M 37.999951 12.500144 L 38.999828 12.500144 M 2.000173 13.500021 L 7.999857 13.500021 M 9.000153 13.500021 L 10.000031 13.500021 M 13.000082 13.500021 L 16.000133 13.500021 M 17.000011 13.500021 L 17.999888 13.500021 M 23.000113 13.500021 L 26.000164 13.500021 M 27.999919 13.500021 L 28.999797 13.500021 M 30.999971 13.500021 L 31.999848 13.500021 M 33.000144 13.500021 L 34.999899 13.500021 M 37.000073 13.500021 L 38.999828 13.500021 M 2.000173 14.499899 L 3.000051 14.499899 M 7.999857 14.499899 L 9.000153 14.499899 M 10.000031 14.499899 L 10.999908 14.499899 M 13.000082 14.499899 L 17.000011 14.499899 M 17.999888 14.499899 L 20.000062 14.499899 M 20.999939 14.499899 L 23.000113 14.499899 M 23.999991 14.499899 L 26.000164 14.499899 M 27.999919 14.499899 L 30.999971 14.499899 M 31.999848 14.499899 L 34.000022 14.499899 M 37.999951 14.499899 L 38.999828 14.499899 M 3.000051 15.500195 L 4.999806 15.500195 M 6.000102 15.500195 L 6.999979 15.500195 M 13.000082 15.500195 L 14.999837 15.500195 M 19.000184 15.500195 L 23.000113 15.500195 M 23.999991 15.500195 L 31.999848 15.500195 M 34.000022 15.500195 L 36.000195 15.500195 M 4.999806 16.500073 L 6.000102 16.500073 M 7.999857 16.500073 L 9.000153 16.500073 M 10.000031 16.500073 L 10.999908 16.500073 M 12.000204 16.500073 L 13.000082 16.500073 M 13.999959 16.500073 L 17.999888 16.500073 M 19.000184 16.500073 L 20.000062 16.500073 M 21.999817 16.500073 L 30.999971 16.500073 M 34.000022 16.500073 L 37.000073 16.500073 M 3.999928 17.49995 L 4.999806 17.49995 M 6.999979 17.49995 L 7.999857 17.49995 M 9.000153 17.49995 L 10.000031 17.49995 M 10.999908 17.49995 L 13.000082 17.49995 M 14.999837 17.49995 L 16.000133 17.49995 M 19.000184 17.49995 L 20.999939 17.49995 M 23.000113 17.49995 L 23.999991 17.49995 M 27.000042 17.49995 L 27.999919 17.49995 M 28.999797 17.49995 L 30.000093 17.49995 M 30.999971 17.49995 L 34.000022 17.49995 M 34.999899 17.49995 L 38.999828 17.49995 M 2.000173 18.499828 L 3.000051 18.499828 M 4.999806 18.499828 L 6.000102 18.499828 M 6.999979 18.499828 L 10.999908 18.499828 M 12.000204 18.499828 L 13.000082 18.499828 M 13.999959 18.499828 L 14.999837 18.499828 M 17.000011 18.499828 L 20.000062 18.499828 M 20.999939 18.499828 L 23.999991 18.499828 M 30.000093 18.499828 L 30.999971 18.499828 M 33.000144 18.499828 L 34.000022 18.499828 M 36.000195 18.499828 L 38.999828 18.499828 M 2.000173 19.500124 L 3.000051 19.500124 M 4.999806 19.500124 L 6.000102 19.500124 M 9.000153 19.500124 L 10.000031 19.500124 M 10.999908 19.500124 L 13.000082 19.500124 M 16.000133 19.500124 L 17.000011 19.500124 M 17.999888 19.500124 L 20.999939 19.500124 M 21.999817 19.500124 L 23.999991 19.500124 M 26.000164 19.500124 L 30.999971 19.500124 M 31.999848 19.500124 L 33.000144 19.500124 M 34.000022 19.500124 L 36.000195 19.500124 M 2.000173 20.500001 L 3.000051 20.500001 M 4.999806 20.500001 L 6.000102 20.500001 M 6.999979 20.500001 L 9.000153 20.500001 M 10.000031 20.500001 L 13.999959 20.500001 M 14.999837 20.500001 L 16.000133 20.500001 M 17.000011 20.500001 L 17.999888 20.500001 M 19.000184 20.500001 L 20.999939 20.500001 M 21.999817 20.500001 L 24.999868 20.500001 M 31.999848 20.500001 L 33.000144 20.500001 M 34.000022 20.500001 L 34.999899 20.500001 M 36.000195 20.500001 L 37.000073 20.500001 M 37.999951 20.500001 L 38.999828 20.500001 M 2.000173 21.499879 L 3.999928 21.499879 M 4.999806 21.499879 L 6.000102 21.499879 M 6.999979 21.499879 L 7.999857 21.499879 M 9.000153 21.499879 L 10.000031 21.499879 M 19.000184 21.499879 L 20.000062 21.499879 M 23.000113 21.499879 L 23.999991 21.499879 M 27.000042 21.499879 L 27.999919 21.499879 M 30.000093 21.499879 L 31.999848 21.499879 M 33.000144 21.499879 L 34.000022 21.499879 M 36.000195 21.499879 L 37.000073 21.499879 M 37.999951 21.499879 L 38.999828 21.499879 M 2.000173 22.500175 L 6.999979 22.500175 M 7.999857 22.500175 L 10.000031 22.500175 M 13.000082 22.500175 L 16.000133 22.500175 M 17.000011 22.500175 L 17.999888 22.500175 M 20.000062 22.500175 L 20.999939 22.500175 M 21.999817 22.500175 L 23.000113 22.500175 M 24.999868 22.500175 L 27.999919 22.500175 M 30.000093 22.500175 L 34.999899 22.500175 M 2.000173 23.500053 L 6.000102 23.500053 M 9.000153 23.500053 L 10.999908 23.500053 M 12.000204 23.500053 L 14.999837 23.500053 M 17.000011 23.500053 L 17.999888 23.500053 M 20.000062 23.500053 L 21.999817 23.500053 M 24.999868 23.500053 L 26.000164 23.500053 M 28.999797 23.500053 L 30.999971 23.500053 M 34.000022 23.500053 L 34.999899 23.500053 M 36.000195 23.500053 L 38.999828 23.500053 M 3.000051 24.49993 L 6.000102 24.49993 M 6.999979 24.49993 L 10.000031 24.49993 M 10.999908 24.49993 L 14.999837 24.49993 M 16.000133 24.49993 L 17.000011 24.49993 M 19.000184 24.49993 L 20.999939 24.49993 M 23.000113 24.49993 L 27.000042 24.49993 M 28.999797 24.49993 L 30.999971 24.49993 M 31.999848 24.49993 L 34.000022 24.49993 M 34.999899 24.49993 L 36.000195 24.49993 M 37.000073 24.49993 L 37.999951 24.49993 M 2.000173 25.499808 L 3.999928 25.499808 M 6.000102 25.499808 L 6.999979 25.499808 M 9.000153 25.499808 L 10.999908 25.499808 M 13.000082 25.499808 L 14.999837 25.499808 M 16.000133 25.499808 L 17.000011 25.499808 M 17.999888 25.499808 L 20.000062 25.499808 M 21.999817 25.499808 L 23.999991 25.499808 M 27.000042 25.499808 L 30.999971 25.499808 M 31.999848 25.499808 L 37.000073 25.499808 M 37.999951 25.499808 L 38.999828 25.499808 M 2.000173 26.500104 L 4.999806 26.500104 M 7.999857 26.500104 L 10.999908 26.500104 M 12.000204 26.500104 L 14.999837 26.500104 M 16.000133 26.500104 L 17.000011 26.500104 M 17.999888 26.500104 L 26.000164 26.500104 M 27.999919 26.500104 L 28.999797 26.500104 M 33.000144 26.500104 L 34.999899 26.500104 M 37.999951 26.500104 L 38.999828 26.500104 M 2.000173 27.499981 L 3.999928 27.499981 M 6.000102 27.499981 L 7.999857 27.499981 M 9.000153 27.499981 L 10.000031 27.499981 M 10.999908 27.499981 L 16.000133 27.499981 M 17.999888 27.499981 L 19.000184 27.499981 M 20.999939 27.499981 L 27.999919 27.499981 M 28.999797 27.499981 L 33.000144 27.499981 M 2.000173 28.499859 L 3.999928 28.499859 M 4.999806 28.499859 L 9.000153 28.499859 M 12.000204 28.499859 L 13.000082 28.499859 M 14.999837 28.499859 L 16.000133 28.499859 M 17.999888 28.499859 L 19.000184 28.499859 M 20.999939 28.499859 L 21.999817 28.499859 M 23.000113 28.499859 L 23.999991 28.499859 M 24.999868 28.499859 L 26.000164 28.499859 M 27.000042 28.499859 L 27.999919 28.499859 M 28.999797 28.499859 L 30.000093 28.499859 M 30.999971 28.499859 L 31.999848 28.499859 M 36.000195 28.499859 L 38.999828 28.499859 M 2.000173 29.500155 L 3.000051 29.500155 M 3.999928 29.500155 L 4.999806 29.500155 M 10.000031 29.500155 L 12.000204 29.500155 M 13.000082 29.500155 L 13.999959 29.500155 M 16.000133 29.500155 L 17.999888 29.500155 M 19.000184 29.500155 L 20.000062 29.500155 M 23.000113 29.500155 L 23.999991 29.500155 M 26.000164 29.500155 L 27.000042 29.500155 M 27.999919 29.500155 L 28.999797 29.500155 M 31.999848 29.500155 L 33.000144 29.500155 M 2.000173 30.500033 L 3.000051 30.500033 M 3.999928 30.500033 L 4.999806 30.500033 M 6.000102 30.500033 L 6.999979 30.500033 M 7.999857 30.500033 L 9.000153 30.500033 M 10.999908 30.500033 L 12.000204 30.500033 M 13.999959 30.500033 L 14.999837 30.500033 M 17.999888 30.500033 L 19.000184 30.500033 M 20.000062 30.500033 L 20.999939 30.500033 M 23.000113 30.500033 L 26.000164 30.500033 M 27.000042 30.500033 L 38.999828 30.500033 M 10.000031 31.49991 L 12.000204 31.49991 M 13.000082 31.49991 L 16.000133 31.49991 M 17.000011 31.49991 L 19.000184 31.49991 M 20.000062 31.49991 L 21.999817 31.49991 M 24.999868 31.49991 L 26.000164 31.49991 M 27.999919 31.49991 L 28.999797 31.49991 M 30.000093 31.49991 L 30.999971 31.49991 M 34.000022 31.49991 L 34.999899 31.49991 M 36.000195 31.49991 L 37.000073 31.49991 M 37.999951 31.49991 L 38.999828 31.49991 M 2.000173 32.500206 L 9.000153 32.500206 M 10.000031 32.500206 L 10.999908 32.500206 M 12.000204 32.500206 L 13.999959 32.500206 M 16.000133 32.500206 L 17.000011 32.500206 M 23.000113 32.500206 L 24.999868 32.500206 M 26.000164 32.500206 L 27.999919 32.500206 M 30.000093 32.500206 L 30.999971 32.500206 M 31.999848 32.500206 L 33.000144 32.500206 M 34.000022 32.500206 L 34.999899 32.500206 M 2.000173 33.500084 L 3.000051 33.500084 M 7.999857 33.500084 L 9.000153 33.500084 M 10.000031 33.500084 L 10.999908 33.500084 M 12.000204 33.500084 L 13.000082 33.500084 M 13.999959 33.500084 L 16.000133 33.500084 M 17.999888 33.500084 L 27.000042 33.500084 M 27.999919 33.500084 L 30.999971 33.500084 M 34.000022 33.500084 L 34.999899 33.500084 M 37.000073 33.500084 L 38.999828 33.500084 M 2.000173 34.499961 L 3.000051 34.499961 M 3.999928 34.499961 L 6.999979 34.499961 M 7.999857 34.499961 L 9.000153 34.499961 M 10.000031 34.499961 L 13.000082 34.499961 M 13.999959 34.499961 L 17.000011 34.499961 M 20.999939 34.499961 L 21.999817 34.499961 M 23.000113 34.499961 L 23.999991 34.499961 M 26.000164 34.499961 L 27.000042 34.499961 M 27.999919 34.499961 L 34.999899 34.499961 M 37.000073 34.499961 L 38.999828 34.499961 M 2.000173 35.499839 L 3.000051 35.499839 M 3.999928 35.499839 L 6.999979 35.499839 M 7.999857 35.499839 L 9.000153 35.499839 M 10.000031 35.499839 L 10.999908 35.499839 M 12.000204 35.499839 L 13.999959 35.499839 M 14.999837 35.499839 L 16.000133 35.499839 M 17.999888 35.499839 L 19.000184 35.499839 M 20.000062 35.499839 L 20.999939 35.499839 M 21.999817 35.499839 L 23.000113 35.499839 M 23.999991 35.499839 L 27.000042 35.499839 M 30.999971 35.499839 L 33.000144 35.499839 M 34.999899 35.499839 L 38.999828 35.499839 M 2.000173 36.500135 L 3.000051 36.500135 M 3.999928 36.500135 L 6.999979 36.500135 M 7.999857 36.500135 L 9.000153 36.500135 M 12.000204 36.500135 L 16.000133 36.500135 M 17.000011 36.500135 L 20.000062 36.500135 M 20.999939 36.500135 L 21.999817 36.500135 M 23.000113 36.500135 L 26.000164 36.500135 M 27.000042 36.500135 L 27.999919 36.500135 M 30.000093 36.500135 L 31.999848 36.500135 M 34.000022 36.500135 L 34.999899 36.500135 M 37.000073 36.500135 L 38.999828 36.500135 M 2.000173 37.500013 L 3.000051 37.500013 M 7.999857 37.500013 L 9.000153 37.500013 M 10.999908 37.500013 L 12.000204 37.500013 M 13.000082 37.500013 L 17.000011 37.500013 M 17.999888 37.500013 L 19.000184 37.500013 M 23.000113 37.500013 L 23.999991 37.500013 M 24.999868 37.500013 L 26.000164 37.500013 M 27.000042 37.500013 L 30.000093 37.500013 M 30.999971 37.500013 L 33.000144 37.500013 M 34.000022 37.500013 L 36.000195 37.500013 M 37.000073 37.500013 L 38.999828 37.500013 M 2.000173 38.49989 L 9.000153 38.49989 M 10.000031 38.49989 L 12.000204 38.49989 M 17.000011 38.49989 L 17.999888 38.49989 M 19.000184 38.49989 L 20.999939 38.49989 M 23.000113 38.49989 L 23.999991 38.49989 M 24.999868 38.49989 L 26.000164 38.49989 M 27.000042 38.49989 L 27.999919 38.49989 M 28.999797 38.49989 L 30.000093 38.49989 M 31.999848 38.49989 L 34.000022 38.49989 M 36.000195 38.49989 L 37.000073 38.49989 M 37.999951 38.49989 L 38.999828 38.49989 " stroke="#000000" stroke-width="1" stroke-opacity="1" stroke-miterlimit="4"/></g></g></svg>